<?xml version="1.0" encoding="utf-8"?>
<!-- Generator: Adobe Illustrator 18.1.1, SVG Export Plug-In . SVG Version: 6.00 Build 0)  -->
<svg version="1.1" xmlns="http://www.w3.org/2000/svg" xmlns:xlink="http://www.w3.org/1999/xlink" x="0px" y="0px"
	 viewBox="0 0 135.5 36.4" enable-background="new 0 0 135.5 36.4" xml:space="preserve">
<g id="Layer_1" display="none">
	<g display="inline">
		<g>
			<g display="none">
				<path display="inline" fill="#231F20" d="M31.4,36.1l-8.7-10.5l-4.3,5.4v5.1H15V-0.1h3.4v25.9h0.1L30.8,9.6h4.4L24.7,23l11,13.2
					H31.4z"/>
			</g>
			<g>
				<g id="XMLID_1_">
					<g>
						<polygon fill="#231F20" points="19.4,9.6 19.4,35.7 18,35.7 18,16.9 17.9,16.9 3.4,36.2 1.5,36.2 11.4,23.2 0.7,9.6 2.5,9.6 
							12.3,22.1 18,14.5 18,9.6 						"/>
					</g>
					<g>
					</g>
				</g>
			</g>
			<path d="M31.1,36.2l-9-12.5h-0.1v12.5h-6.4V-0.1h6.4v22.1H22l8.5-12.5h7.3l-9.6,13.1l10.9,13.6H31.1z"/>
		</g>
		<g>
			<rect x="64.6" y="9.9" fill="none" width="26.5" height="26.5"/>
			<g>
				<path fill="#555555" d="M79.9,36.2l-9-12.5h-0.1v12.5h-6.4V-0.1h6.4v22.1h0.1l8.5-12.5h7.3l-9.6,13.1L88,36.2H79.9z"/>
				<path fill="#555555" d="M95.6,21.2v15h-6.4V9.6H95v2.4h0.1c1.1-1.7,3.6-2.4,6.2-2.4l0,6C97.2,15.7,95.6,17.3,95.6,21.2z"/>
				<path fill="#555555" d="M126.9,25.6h-19.4c0.1,0.7,0.5,1.3,0.8,1.8c1.3,2.1,3.6,3.3,6.1,3.3c2.4,0,4.5-1,5.7-3.2h6.3
					c-1.6,5.1-6.7,8.7-12,8.7c-7.5,0-13.2-5.8-13.2-13.2c0-7.5,5.6-13.4,13.1-13.4c7.3,0,12.9,5.7,12.9,13
					C127.3,23.6,127.1,24.6,126.9,25.6z M114.4,15.1c-3.6,0-6.2,2.2-7.1,5.7h13.8C120.6,17.2,118.1,15.1,114.4,15.1z"/>
				<path fill="#555555" d="M149.9,36.2v-3.9c-2,2.3-5.7,3.9-8.7,3.9c-7.5,0-12.2-6.4-12.2-13.5c0-7.2,5.1-13.2,12.5-13.2
					c2.7,0,5.4,1.1,7.4,3c0.3,0.3,0.7,0.7,0.9,1h0.1V9.6h5.5v26.6H149.9z M142.5,15c-4.5,0-7.4,3.7-7.4,8c0,4.2,3.2,7.7,7.4,7.7
					c4.5,0,7.3-3.6,7.3-7.9C149.8,18.5,146.9,15,142.5,15z"/>
				<path fill="#555555" d="M168,15.2v21h-6.4v-21h-4.4V9.5h4.4v-9.6h6.4v9.6l4.5,0.1v5.6L168,15.2z"/>
				<path fill="#555555" d="M197.6,25.5h-19.4c0.1,0.7,0.4,1.3,0.8,1.8c1.4,2.1,3.6,3.3,6.1,3.3c2.4,0,4.5-1,5.8-3.2h6.3
					c-1.6,5.1-6.8,8.7-12.1,8.7c-7.5,0-13.2-5.8-13.2-13.2c0-7.5,5.6-13.4,13.2-13.4c7.3,0,12.9,5.8,12.9,13
					C198,23.5,197.8,24.6,197.6,25.5z M185.1,15c-3.6,0-6.2,2.2-7.1,5.7h13.8C191.2,17.1,188.7,15,185.1,15z"/>
				<path fill="#555555" d="M211.5,36.2h-5L195.7,9.5h6.9l6.4,17.7h0.1l6.1-17.7h7L211.5,36.2z"/>
				<path fill="#555555" d="M245.8,25.5h-19.4c0.1,0.7,0.4,1.3,0.8,1.8c1.3,2.1,3.6,3.3,6.1,3.3c2.4,0,4.5-1,5.7-3.2h6.3
					c-1.6,5.1-6.7,8.7-12,8.7c-7.5,0-13.2-5.8-13.2-13.2c0-7.5,5.6-13.4,13.1-13.4c7.3,0,12.9,5.7,12.9,13
					C246.1,23.5,246,24.5,245.8,25.5z M233.3,15c-3.6,0-6.2,2.2-7,5.7H240C239.4,17.1,236.9,15,233.3,15z"/>
				<g>
				</g>
			</g>
		</g>
	</g>
</g>
<g id="Layer_2">
	
		<text transform="matrix(1 0 0 1 -1.8332 35.3799)" fill="#FFFFFF" font-family="'Futura-Medium'" font-size="46" letter-spacing="-4">muhimu</text>
</g>
</svg>
